<svg width="24" height="24" viewBox="0 0 24 24" fill="none" xmlns="http://www.w3.org/2000/svg">
<g id="Frame 29">
<path id="Vector" d="M4.8 19.4286C4.46 19.4286 4.1748 19.3189 3.9444 19.0994C3.7148 18.8808 3.6 18.6095 3.6 18.2857C3.6 17.9619 3.7148 17.6907 3.9444 17.472C4.1748 17.2526 4.46 17.1429 4.8 17.1429C5.14 17.1429 5.4252 17.2526 5.6556 17.472C5.8852 17.6907 6 17.9619 6 18.2857C6 18.6095 5.8852 18.8808 5.6556 19.0994C5.4252 19.3189 5.14 19.4286 4.8 19.4286ZM19.2 19.4286C18.86 19.4286 18.5752 19.3189 18.3456 19.0994C18.1152 18.8808 18 18.6095 18 18.2857C18 17.9619 18.1152 17.6907 18.3456 17.472C18.5752 17.2526 18.86 17.1429 19.2 17.1429C19.54 17.1429 19.8248 17.2526 20.0544 17.472C20.2848 17.6907 20.4 17.9619 20.4 18.2857C20.4 18.6095 20.2848 18.8808 20.0544 19.0994C19.8248 19.3189 19.54 19.4286 19.2 19.4286ZM8.4 24C8.06 24 7.7752 23.8903 7.5456 23.6709C7.3152 23.4522 7.2 23.181 7.2 22.8571C7.2 22.5333 7.3152 22.2621 7.5456 22.0434C7.7752 21.824 8.06 21.7143 8.4 21.7143C8.74 21.7143 9.0252 21.824 9.2556 22.0434C9.4852 22.2621 9.6 22.5333 9.6 22.8571C9.6 23.181 9.4852 23.4522 9.2556 23.6709C9.0252 23.8903 8.74 24 8.4 24ZM12 19.4286C11.66 19.4286 11.3752 19.3189 11.1456 19.0994C10.9152 18.8808 10.8 18.6095 10.8 18.2857C10.8 17.9619 10.9152 17.6907 11.1456 17.472C11.3752 17.2526 11.66 17.1429 12 17.1429C12.34 17.1429 12.6252 17.2526 12.8556 17.472C13.0852 17.6907 13.2 17.9619 13.2 18.2857C13.2 18.6095 13.0852 18.8808 12.8556 19.0994C12.6252 19.3189 12.34 19.4286 12 19.4286ZM15.6 24C15.26 24 14.9752 23.8903 14.7456 23.6709C14.5152 23.4522 14.4 23.181 14.4 22.8571C14.4 22.5333 14.5152 22.2621 14.7456 22.0434C14.9752 21.824 15.26 21.7143 15.6 21.7143C15.94 21.7143 16.2252 21.824 16.4556 22.0434C16.6852 22.2621 16.8 22.5333 16.8 22.8571C16.8 23.181 16.6852 23.4522 16.4556 23.6709C16.2252 23.8903 15.94 24 15.6 24ZM6.6 16C4.78 16 3.2252 15.3855 1.9356 14.1566C0.6452 12.9284 0 11.4476 0 9.71429C0 8.13333 0.55 6.75238 1.65 5.57143C2.75 4.39048 4.11 3.69524 5.73 3.48571C6.37 2.4 7.2452 1.54743 8.3556 0.928C9.4652 0.309333 10.68 0 12 0C13.8 0 15.3648 0.547809 16.6944 1.64343C18.0248 2.73829 18.83 4.10476 19.11 5.74286C20.49 5.85714 21.65 6.4 22.59 7.37143C23.53 8.34286 24 9.50476 24 10.8571C24 12.2857 23.4752 13.5002 22.4256 14.5006C21.3752 15.5002 20.1 16 18.6 16H6.6ZM6.6 13.7143H18.6C19.44 13.7143 20.15 13.4381 20.73 12.8857C21.31 12.3333 21.6 11.6571 21.6 10.8571C21.6 10.0571 21.31 9.38095 20.73 8.82857C20.15 8.27619 19.44 8 18.6 8H16.8V6.85714C16.8 5.6 16.33 4.52381 15.39 3.62857C14.45 2.73333 13.32 2.28571 12 2.28571C11.04 2.28571 10.1648 2.53333 9.3744 3.02857C8.5848 3.52381 7.99 4.19048 7.59 5.02857L7.29 5.71429H6.54C5.4 5.75238 4.4252 6.15695 3.6156 6.928C2.8052 7.69981 2.4 8.62857 2.4 9.71429C2.4 10.819 2.81 11.7619 3.63 12.5429C4.45 13.3238 5.44 13.7143 6.6 13.7143Z" fill="white"/>
</g>
</svg>
